{"title":"Adobe Premiere Pro 2.0 Visual Training @ Only Upload Mughal","uid":8825617,"size":956423227,"categoryP":"video","categoryS":"other","magnet":"?xt=urn:btih:61320b3d1fa6ed092820fd83439afd96c83a80d6&amp;dn=Adobe+Premiere+Pro+2.0+Visual+Training+%40+Only+Upload+Mughal&amp;tr=udp%3A%2F%2Ftracker.openbittorrent.com%3A80&amp;tr=udp%3A%2F%2Fopen.demonii.com%3A1337&amp;tr=udp%3A%2F%2Ftracker.coppersurfer.tk%3A6969&amp;tr=udp%3A%2F%2Fexodus.desync.com%3A6969","seeders":0,"leechers":8,"uploader":"Mughal1","files":89,"time":1376841098,"description":"[b][color=purple][size=25]Adobe Premiere Pro 2.0 Visual Training @ Only Upload Mughal [/size][/color][/b]\n[img]http://torrent-stats.info/fd83/23b1bf8a5.png[/img]\n\n[b]MediaInfo[/b]\n\n[b]General\nComplete name : D:Capturing_the_videos_in_Adobe_Premiere_Pro_2.0_-_Capture_the_videos.mov\nFormat : MPEG-4\nFormat profile : QuickTime\nCodec ID : qt \nFile size : 42.8 MiB\nDuration : 17mn 19s\nOverall bit rate : 345 Kbps\nEncoded date : UTC 2006-11-19 00:05:37\nTagged date : UTC 2006-11-19 00:05:41\nWriting library : Apple QuickTime\n\nVideo\nID : 2\nFormat : Sorenson 3\nCodec ID : SVQ3\nCodec ID/Info : Sorenson Media Video 3 (Apple QuickTime 5)\nDuration : 17mn 19s\nBit rate : 312 Kbps\nWidth : 1 024 pixels\nHeight : 768 pixels\nDisplay aspect ratio : 4:3\nFrame rate mode : Constant\nFrame rate : 10.000 fps\nBits/(Pixel*Frame) : 0.040\nStream size : 38.7 MiB (90%)\nLanguage : English\nEncoded date : UTC 2006-11-18 23:55:36\nTagged date : UTC 2006-11-19 00:05:41\n\nAudio\nID : 1\nFormat : Qdesign 2\nCodec ID : QDM2\nCodec ID/Info : QDesign Music 2\nDuration : 17mn 19s\nSource duration : 17mn 19s\nBit rate mode : Constant\nBit rate : 352.8 Kbps\nChannel(s) : 2 channels\nChannel positions : Front: L R\nSampling rate : 44.1 KHz\nBit depth : 16 bits\nStream size : 43.7 MiB\nSource stream size : 43.7 MiB\nLanguage : English\nEncoded date : UTC 2013-11-18 23:51:49\nTagged date : UTC 2013-11-19 00:05:41[/b]","torrent":{"xt":"urn:btih:61320b3d1fa6ed092820fd83439afd96c83a80d6","amp;dn":"Adobe+Premiere+Pro+2.0+Visual+Training+%40+Only+Upload+Mughal","amp;tr":["udp%3A%2F%2Ftracker.openbittorrent.com%3A80","udp%3A%2F%2Fopen.demonii.com%3A1337","udp%3A%2F%2Ftracker.coppersurfer.tk%3A6969","udp%3A%2F%2Fexodus.desync.com%3A6969"],"infoHash":"61320b3d1fa6ed092820fd83439afd96c83a80d6","infoHashBuffer":{"type":"Buffer","data":[97,50,11,61,31,166,237,9,40,32,253,131,67,154,253,150,200,58,128,214]},"announce":[],"urlList":[]}}